<svg xmlns="http://www.w3.org/2000/svg" viewBox="0 0 549.38 264.57" width="549.38" height="264.57">
  <g transform="translate(72.10,170.84)" fill="#1A1A1A">
    <path d="M328.72918701171875 -13.7398681640625Q318.6993408203125 -13.7398681640625 314.24945068359375 -3.55010986328125Q309.3795166015625 8.8997802734375 301.7846374511719 29.7196044921875Q294.18975830078125 50.5394287109375 288.31982421875 66.439208984375L100.68017578125 548.159912109375Q90.68017578125 574.7100219726562 73.82516479492188 593.4200439453125Q56.97015380859375 612.1300659179688 29.81024169921875 619.4200439453125Q15.840087890625 623.840087890625 7.9200439453125 628.5501098632812Q0 633.2601318359375 0 641.1300659179688Q0 647.7100219726562 7.4200439453125 650.5Q14.840087890625 653.2899780273438 26.1002197265625 653.2899780273438Q43.55010986328125 653.2899780273438 65.51492309570312 652.2899780273438Q87.479736328125 651.2899780273438 111.2196044921875 650.6449890136719Q134.95947265625 650 156.799560546875 650Q176.799560546875 650 199.63430786132812 650.7899780273438Q222.46905517578125 651.5799560546875 243.3187255859375 652.2249450683594Q264.16839599609375 652.8699340820312 277.64813232421875 652.8699340820312Q289.1982421875 652.8699340820312 297.6332092285156 649.9349670410156Q306.06817626953125 647 306.06817626953125 640.7100219726562Q306.06817626953125 633.1300659179688 297.6332092285156 627.6300659179688Q289.1982421875 622.1300659179688 274.51806640625 620.1300659179688Q245.9381103515625 615.9701538085938 229.03298950195312 606.9051208496094Q212.12786865234375 597.840087890625 212.12786865234375 580.840087890625Q212.12786865234375 567.6098022460938 215.7579345703125 556.8496704101562Q219.38800048828125 546.0895385742188 221.0980224609375 539.3795166015625L359.87841796875 165.759033203125Q361.87841796875 160.88909912109375 364.7334289550781 159.88909912109375Q367.58843994140625 158.88909912109375 370.58843994140625 166.759033203125L500.3389892578125 507.91046142578125Q520.3389892578125 560.3305053710938 504.86883544921875 587.4403076171875Q489.398681640625 614.5501098632812 453.04901123046875 619.4200439453125Q439.4989013671875 621.4200439453125 430.20892333984375 626.9200439453125Q420.9189453125 632.4200439453125 420.9189453125 640Q420.9189453125 646.2899780273438 429.3539123535156 649.0799560546875Q437.78887939453125 651.8699340820312 449.9189453125 651.8699340820312Q465.52874755859375 651.8699340820312 480.8038024902344 651.5799560546875Q496.078857421875 651.2899780273438 512.2739562988281 650.7899780273438Q528.4690551757812 650.2899780273438 547.759033203125 650.2899780273438Q576.759033203125 650.2899780273438 607.2942199707031 652.2249450683594Q637.8294067382812 654.159912109375 660.3091430664062 654.159912109375Q672.7291870117188 654.159912109375 681.1641540527344 651.3699340820312Q689.59912109375 648.5799560546875 689.59912109375 641.4200439453125Q689.59912109375 633.5501098632812 681.4541320800781 629.340087890625Q673.3091430664062 625.1300659179688 658.6289672851562 621.4200439453125Q623.6588134765625 613.4200439453125 600.5436706542969 588.5799560546875Q577.4285278320312 563.7398681640625 563.8187255859375 530.6503295898438L388.5777587890625 107.4178466796875Q381.64813232421875 91.10870361328125 373.6833190917969 71.11404418945312Q365.718505859375 51.119384765625 358.26861572265625 31.3795166015625Q350.8187255859375 11.6396484375 343.36883544921875 -3.55010986328125Q341.4989013671875 -8.5799560546875 337.7739562988281 -11.159912109375Q334.04901123046875 -13.7398681640625 328.72918701171875 -13.7398681640625Z" transform="translate(0.00,0) scale(0.1200,-0.1200)"/><path d="M212.4200439453125 -14.71002197265625Q157.71002197265625 -14.71002197265625 116.13006591796875 12.86993408203125Q74.55010986328125 40.44989013671875 50.97015380859375 89.94989013671875Q27.39019775390625 139.44989013671875 27.39019775390625 203.5799560546875Q27.39019775390625 263.31982421875 54.905120849609375 312.26971435546875Q82.4200439453125 361.2196044921875 128.44989013671875 390.799560546875Q174.479736328125 420.3795166015625 229.3795166015625 420.3795166015625Q270.24945068359375 420.3795166015625 302.40936279296875 403.50958251953125Q334.56927490234375 386.6396484375 353.0841979980469 357.26971435546875Q371.59912109375 327.8997802734375 371.59912109375 290.02984619140625Q371.59912109375 256.71002197265625 341.30914306640625 256.71002197265625H134.078857421875Q120.078857421875 256.71002197265625 114.28887939453125 249.06503295898438Q108.4989013671875 241.4200439453125 108.4989013671875 220.28997802734375Q108.4989013671875 175.76971435546875 128.04901123046875 139.16949462890625Q147.59912109375 102.56927490234375 180.56927490234375 80.95413208007812Q213.5394287109375 59.3389892578125 254.08953857421875 59.3389892578125Q283.799560546875 59.3389892578125 308.299560546875 70.69400024414062Q332.799560546875 82.04901123046875 353.5394287109375 103.1790771484375Q357.24945068359375 107.30914306640625 359.82940673828125 109.09912109375Q362.40936279296875 110.88909912109375 365.40936279296875 110.88909912109375Q374.279296875 110.88909912109375 374.279296875 100.0191650390625Q374.279296875 83.9189453125 359.759033203125 62.36883544921875Q346.4989013671875 41.04901123046875 324.62896728515625 23.424285888671875Q302.759033203125 5.799560546875 274.1343078613281 -4.455230712890625Q245.50958251953125 -14.71002197265625 212.4200439453125 -14.71002197265625ZM135.4989013671875 291.479736328125H215.479736328125Q240.92962646484375 291.479736328125 255.75479125976562 292.479736328125Q270.5799560546875 293.479736328125 284.2601318359375 296.479736328125Q289.2601318359375 297.76971435546875 291.1950988769531 304.2846374511719Q293.13006591796875 310.799560546875 293.13006591796875 320.799560546875Q293.13006591796875 348.92962646484375 270.2398681640625 368.26971435546875Q247.34967041015625 387.60980224609375 214.95947265625 387.60980224609375Q192.82940673828125 387.60980224609375 171.42428588867188 374.68975830078125Q150.0191650390625 361.76971435546875 136.1790771484375 342.34967041015625Q122.3389892578125 322.92962646484375 122.62896728515625 302.92962646484375Q122.62896728515625 291.479736328125 135.4989013671875 291.479736328125Z" transform="translate(84.50,0) scale(0.1200,-0.1200)"/><path d="M151.5394287109375 -14Q119.66949462890625 -14 91.36459350585938 -5.0799560546875Q63.0596923828125 3.840087890625 41.7398681640625 21.13006591796875Q35.28997802734375 33.5799560546875 32.355010986328125 61.754791259765625Q29.4200439453125 89.92962646484375 29 113.30914306640625Q29 123.46905517578125 44.31982421875 123.46905517578125Q49.76971435546875 123.46905517578125 54.1396484375 120.66415405273438Q58.50958251953125 117.8592529296875 59.799560546875 113.56927490234375Q74.82940673828125 67.1790771484375 102.02450561523438 43.134307861328125Q129.2196044921875 19.08953857421875 160.5394287109375 19.08953857421875Q188.66949462890625 19.08953857421875 206.84967041015625 37.574615478515625Q225.02984619140625 56.0596923828125 225.02984619140625 82.159912109375Q225.02984619140625 108.86993408203125 206.159912109375 127.64498901367188Q187.28997802734375 146.4200439453125 148.08953857421875 169.7803955078125Q115.82940673828125 188.75054931640625 93.08953857421875 207.60556030273438Q70.34967041015625 226.4605712890625 58.384857177734375 248.7803955078125Q46.4200439453125 271.1002197265625 46.4200439453125 300.44989013671875Q46.4200439453125 335.0596923828125 63.594879150390625 362.0746154785156Q80.76971435546875 389.08953857421875 113.08953857421875 404.8795166015625Q145.40936279296875 420.66949462890625 190.40936279296875 420.66949462890625Q221.56927490234375 420.66949462890625 244.32406616210938 414.2345275878906Q267.078857421875 407.799560546875 277.36883544921875 400.799560546875Q285.36883544921875 390.08953857421875 290.578857421875 365.1396484375Q295.78887939453125 340.18975830078125 295.78887939453125 314.840087890625Q295.78887939453125 306.68017578125 282.88909912109375 306.68017578125Q276.59912109375 306.68017578125 270.3741760253906 310.05010986328125Q264.14923095703125 313.4200439453125 262.14923095703125 317.71002197265625Q249.14923095703125 352.7398681640625 229.3592529296875 370.9648132324219Q209.56927490234375 389.18975830078125 182.0191650390625 389.18975830078125Q157.88909912109375 389.18975830078125 138.96905517578125 374.479736328125Q120.04901123046875 359.76971435546875 120.04901123046875 332.50958251953125Q120.04901123046875 310.3795166015625 136.28887939453125 292.8144836425781Q152.52874755859375 275.24945068359375 188.759033203125 254.8592529296875Q249.078857421875 221.56927490234375 277.4338684082031 192.05435180664062Q305.78887939453125 162.5394287109375 305.78887939453125 113.50958251953125Q305.78887939453125 55.7398681640625 264.20892333984375 20.86993408203125Q222.62896728515625 -14 151.5394287109375 -14Z" transform="translate(134.85,0) scale(0.1200,-0.1200)"/><path d="M199.72918701171875 -14Q144.6396484375 -14 115.25479125976562 17.159912109375Q85.86993408203125 48.31982421875 85.86993408203125 108.18975830078125V339.60980224609375Q85.86993408203125 347.8997802734375 79.5799560546875 351.5447692871094Q73.28997802734375 355.18975830078125 54.159912109375 355.479736328125H45.55010986328125Q39.97015380859375 355.479736328125 36.035186767578125 363.7196044921875Q32.1002197265625 371.95947265625 32.1002197265625 379.82940673828125Q32.1002197265625 381.82940673828125 34.520263671875 385.5394287109375Q36.9403076171875 389.24945068359375 38.81024169921875 390.24945068359375Q60.2601318359375 402.50958251953125 80.67483520507812 418.24945068359375Q101.08953857421875 433.98931884765625 118.79421997070312 450.09912109375Q136.4989013671875 466.20892333984375 147.8187255859375 478.078857421875Q153.68865966796875 483.36883544921875 157.76861572265625 487.0138244628906Q161.84857177734375 490.6588134765625 167.718505859375 490.6588134765625Q174.16839599609375 490.6588134765625 178.52340698242188 488.078857421875Q182.87841796875 485.4989013671875 181.58843994140625 476.46905517578125L176.00848388671875 426.5394287109375Q175.00848388671875 414.95947265625 181.2984619140625 410.8144836425781Q187.58843994140625 406.66949462890625 200.2984619140625 406.66949462890625H316.038330078125Q319.4583740234375 406.66949462890625 322.4583740234375 400.0245056152344Q325.4583740234375 393.3795166015625 325.4583740234375 385.5394287109375Q325.4583740234375 374.50958251953125 322.16839599609375 364.5596923828125Q318.87841796875 354.60980224609375 314.58843994140625 354.60980224609375H217.6182861328125Q193.48822021484375 354.60980224609375 185.55325317382812 350.02984619140625Q177.6182861328125 345.44989013671875 177.6182861328125 327.479736328125V133.3795166015625Q177.6182861328125 91.34967041015625 194.76327514648438 68.49465942382812Q211.90826416015625 45.6396484375 243.038330078125 45.6396484375Q271.74835205078125 45.6396484375 286.87841796875 50.574615478515625Q302.00848388671875 55.50958251953125 314.42852783203125 63.0596923828125Q317.00848388671875 65.0596923828125 319.2984619140625 65.0596923828125Q323.58843994140625 65.0596923828125 325.5234069824219 59.979736328125Q327.4583740234375 54.8997802734375 327.4583740234375 48.7398681640625Q327.4583740234375 43.44989013671875 309.3634948730469 28.014923095703125Q291.26861572265625 12.5799560546875 262.3038024902344 -0.71002197265625Q233.3389892578125 -14 199.72918701171875 -14Z" transform="translate(177.58,0) scale(0.1200,-0.1200)"/><path d="M41.68017578125 -3Q33.55010986328125 -3 28.195098876953125 -0.065032958984375Q22.840087890625 2.86993408203125 22.840087890625 8.86993408203125Q22.840087890625 16.86993408203125 29.47015380859375 20.44989013671875Q36.1002197265625 24.02984619140625 44.1002197265625 26.02984619140625Q66.840087890625 31.60980224609375 77.69509887695312 38.964813232421875Q88.55010986328125 46.31982421875 88.55010986328125 63.7398681640625V280.44989013671875Q88.55010986328125 310.0596923828125 78.7601318359375 328.5948791503906Q68.97015380859375 347.13006591796875 44.13006591796875 350.840087890625Q38.840087890625 351.840087890625 36.195098876953125 355.5650329589844Q33.55010986328125 359.28997802734375 33.55010986328125 365.5799560546875Q33.55010986328125 378.02984619140625 43.4200439453125 379.31982421875Q87.479736328125 388.8997802734375 118.6993408203125 405.26971435546875Q149.9189453125 421.6396484375 165.8187255859375 431.6396484375Q177.42852783203125 438.92962646484375 182.1385498046875 438.92962646484375Q190.4583740234375 438.92962646484375 190.4583740234375 431.31982421875Q190.16839599609375 420.13006591796875 187.37841796875 396.05010986328125Q184.58843994140625 371.97015380859375 182.44345092773438 343.9051208496094Q180.2984619140625 315.840087890625 180.2984619140625 292.2601318359375V64.02984619140625Q180.2984619140625 48.18975830078125 191.36349487304688 40.18975830078125Q202.42852783203125 32.18975830078125 224.74835205078125 26.02984619140625Q232.74835205078125 23.7398681640625 239.52340698242188 20.44989013671875Q246.2984619140625 17.159912109375 246.2984619140625 9.159912109375Q246.2984619140625 -2.71002197265625 227.74835205078125 -2.71002197265625Q208.74835205078125 -2.71002197265625 194.05859375 -1.355010986328125Q179.36883544921875 0 165.6790771484375 1.0Q151.98931884765625 2 133.98931884765625 2Q116.98931884765625 2 103.23452758789062 1.0Q89.479736328125 0 75.5799560546875 -1.5Q61.68017578125 -3 41.68017578125 -3ZM107.24945068359375 455.55010986328125Q98.3795166015625 455.55010986328125 98.3795166015625 465.71002197265625Q98.3795166015625 469.0 99.3795166015625 473.78997802734375Q100.3795166015625 478.5799560546875 102.66949462890625 484.86993408203125Q109.95947265625 503.86993408203125 124.44454956054688 533.0799560546875Q138.92962646484375 562.2899780273438 153.41470336914062 590.1449890136719Q167.8997802734375 618.0 175.60980224609375 631.5799560546875Q181.479736328125 642.1897583007812 189.99465942382812 647.1897583007812Q198.50958251953125 652.1897583007812 208.98931884765625 652.1897583007812Q229.72918701171875 652.1897583007812 245.59912109375 646.8997802734375Q261.46905517578125 641.6098022460938 261.46905517578125 630.0298461914062Q261.46905517578125 624.31982421875 259.1140441894531 619.5948791503906Q256.759033203125 614.8699340820312 251.46905517578125 607.8699340820312Q236.8592529296875 589.1300659179688 216.06927490234375 563.9200439453125Q195.279296875 538.7100219726562 173.98931884765625 514.7100219726562Q152.6993408203125 490.71002197265625 136.799560546875 474.81024169921875Q117.5394287109375 455.55010986328125 107.24945068359375 455.55010986328125Z" transform="translate(220.23,0) scale(0.1200,-0.1200)"/><path d="M202.24945068359375 -289.71002197265625Q112.8997802734375 -289.71002197265625 61.514923095703125 -257.9349670410156Q10.13006591796875 -226.159912109375 10.13006591796875 -171.7398681640625Q10.13006591796875 -144.28997802734375 17.840087890625 -126.14498901367188Q25.55010986328125 -108 45.44989013671875 -93.2601318359375Q61.18975830078125 -80.68017578125 82.80490112304688 -63.775054931640625Q104.4200439453125 -46.86993408203125 125.07037353515625 -30.6396484375L169.68017578125 -37.8592529296875Q127.479736328125 -64.2196044921875 109.0596923828125 -89.75479125976562Q90.6396484375 -115.28997802734375 90.6396484375 -151.23028564453125Q90.6396484375 -191.520263671875 125.70468139648438 -218.73028564453125Q160.76971435546875 -245.9403076171875 213.0596923828125 -245.9403076171875Q275.5394287109375 -245.9403076171875 308.92962646484375 -218.9403076171875Q331.60980224609375 -200.520263671875 344.44989013671875 -172.77505493164062Q357.28997802734375 -145.02984619140625 357.28997802734375 -115.08953857421875Q357.28997802734375 -95.119384765625 343.3848571777344 -82.21426391601562Q329.479736328125 -69.30914306640625 298.0746154785156 -61.034088134765625Q266.66949462890625 -52.759033203125 214.24945068359375 -49.1790771484375Q116.76971435546875 -41.0191650390625 77.659912109375 -19.104461669921875Q38.55010986328125 2.81024169921875 38.55010986328125 44.28997802734375Q38.55010986328125 54 44.05010986328125 62.934967041015625Q49.55010986328125 71.86993408203125 63 82.159912109375Q83.39019775390625 97.840087890625 95.11514282226562 106.77505493164062Q106.840087890625 115.71002197265625 113.64498901367188 122.5799560546875Q120.44989013671875 129.44989013671875 124.86993408203125 137.86993408203125L164.3795166015625 120.5799560546875Q142.95947265625 113.159912109375 128.82940673828125 100.09487915039062Q114.6993408203125 87.02984619140625 114.6993408203125 76.8997802734375Q114.6993408203125 64.0596923828125 128.97439575195312 54.7196044921875Q143.24945068359375 45.3795166015625 172.97439575195312 39.95947265625Q202.6993408203125 34.5394287109375 249.04901123046875 30.95947265625Q346.84857177734375 24.799560546875 393.1534729003906 -0.055450439453125Q439.4583740234375 -24.91046142578125 439.4583740234375 -71.200439453125Q439.4583740234375 -111.07037353515625 418.7984619140625 -149.58529663085938Q398.1385498046875 -188.1002197265625 363.9637145996094 -219.97015380859375Q329.78887939453125 -251.840087890625 287.8240661621094 -270.7750549316406Q245.8592529296875 -289.71002197265625 202.24945068359375 -289.71002197265625ZM214.82940673828125 140.71002197265625Q250.50958251953125 140.71002197265625 273.3347473144531 178.05010986328125Q296.159912109375 215.39019775390625 296.159912109375 272.97015380859375Q296.159912109375 304.5799560546875 284.10980224609375 330.8049011230469Q272.0596923828125 357.02984619140625 252.44454956054688 372.52984619140625Q232.82940673828125 388.02984619140625 208.98931884765625 388.02984619140625Q187.14923095703125 388.02984619140625 168.24411010742188 371.81982421875Q149.3389892578125 355.60980224609375 137.9989013671875 329.31982421875Q126.6588134765625 303.02984619140625 126.6588134765625 270.86993408203125Q126.6588134765625 235 138.4989013671875 205.35501098632812Q150.3389892578125 175.71002197265625 170.59912109375 158.21002197265625Q190.8592529296875 140.71002197265625 214.82940673828125 140.71002197265625ZM207.08953857421875 102.520263671875Q164.92962646484375 102.520263671875 126.04476928710938 123.66525268554688Q87.159912109375 144.81024169921875 62.21002197265625 180.47015380859375Q37.2601318359375 216.13006591796875 37.2601318359375 259.44989013671875Q37.2601318359375 307.60980224609375 63.21002197265625 344.26971435546875Q89.159912109375 380.92962646484375 131.33474731445312 401.50958251953125Q173.50958251953125 422.08953857421875 221.119384765625 422.08953857421875Q250.6993408203125 422.08953857421875 274.3741760253906 414.7345275878906Q298.04901123046875 407.3795166015625 323.398681640625 401.66949462890625Q345.6588134765625 395.82940673828125 361.398681640625 394.1844177246094Q377.1385498046875 392.5394287109375 394.74835205078125 392.5394287109375Q407.90826416015625 392.5394287109375 424.8933410644531 394.0394287109375Q441.87841796875 395.5394287109375 449.74835205078125 395.5394287109375Q463.90826416015625 395.5394287109375 463.90826416015625 377.92962646484375Q463.90826416015625 365.44989013671875 452.74835205078125 352.840087890625Q447.4583740234375 347.2601318359375 443.2984619140625 347.2601318359375H416.2984619140625Q389.58843994140625 347.2601318359375 384.55859375 339.2601318359375Q382.9786376953125 335.840087890625 381.6236267089844 330.2249450683594Q380.26861572265625 324.60980224609375 379.55859375 315.7547912597656Q378.84857177734375 306.8997802734375 378.84857177734375 292.97015380859375Q378.84857177734375 241.39019775390625 355.10870361328125 198.1002197265625Q331.36883544921875 154.81024169921875 292.46905517578125 128.66525268554688Q253.56927490234375 102.520263671875 207.08953857421875 102.520263671875Z" transform="translate(254.15,0) scale(0.1200,-0.1200)"/><path d="M41.68017578125 -3Q33.55010986328125 -3 28.195098876953125 -0.065032958984375Q22.840087890625 2.86993408203125 22.840087890625 8.86993408203125Q22.840087890625 16.86993408203125 29.47015380859375 20.44989013671875Q36.1002197265625 24.02984619140625 44.1002197265625 26.02984619140625Q66.840087890625 31.60980224609375 77.69509887695312 38.964813232421875Q88.55010986328125 46.31982421875 88.55010986328125 63.7398681640625V280.44989013671875Q88.55010986328125 310.0596923828125 78.7601318359375 328.5948791503906Q68.97015380859375 347.13006591796875 44.13006591796875 350.840087890625Q38.840087890625 351.840087890625 36.195098876953125 355.5650329589844Q33.55010986328125 359.28997802734375 33.55010986328125 365.5799560546875Q33.55010986328125 378.02984619140625 43.4200439453125 379.31982421875Q87.479736328125 388.8997802734375 118.6993408203125 405.26971435546875Q149.9189453125 421.6396484375 165.8187255859375 431.6396484375Q177.42852783203125 438.92962646484375 182.1385498046875 438.92962646484375Q190.4583740234375 438.92962646484375 190.4583740234375 431.31982421875Q190.16839599609375 420.13006591796875 187.37841796875 396.05010986328125Q184.58843994140625 371.97015380859375 182.44345092773438 343.9051208496094Q180.2984619140625 315.840087890625 180.2984619140625 292.2601318359375V64.02984619140625Q180.2984619140625 48.18975830078125 191.36349487304688 40.18975830078125Q202.42852783203125 32.18975830078125 224.74835205078125 26.02984619140625Q232.74835205078125 23.7398681640625 239.52340698242188 20.44989013671875Q246.2984619140625 17.159912109375 246.2984619140625 9.159912109375Q246.2984619140625 -2.71002197265625 227.74835205078125 -2.71002197265625Q208.74835205078125 -2.71002197265625 194.05859375 -1.355010986328125Q179.36883544921875 0 165.6790771484375 1.0Q151.98931884765625 2 133.98931884765625 2Q116.98931884765625 2 103.23452758789062 1.0Q89.479736328125 0 75.5799560546875 -1.5Q61.68017578125 -3 41.68017578125 -3ZM132.119384765625 507.880615234375Q107.34967041015625 507.880615234375 89.80490112304688 525.4253845214844Q72.2601318359375 542.9701538085938 72.2601318359375 567.7398681640625Q72.2601318359375 594.0895385742188 89.80490112304688 611.6343078613281Q107.34967041015625 629.1790771484375 132.119384765625 629.1790771484375Q158.46905517578125 629.1790771484375 176.01382446289062 611.6343078613281Q193.55859375 594.0895385742188 193.55859375 567.7398681640625Q193.55859375 542.9701538085938 176.01382446289062 525.4253845214844Q158.46905517578125 507.880615234375 132.119384765625 507.880615234375Z" transform="translate(311.50,0) scale(0.1200,-0.1200)"/><path d="M235.159912109375 -14Q177.71002197265625 -14 131.55010986328125 12.28997802734375Q85.39019775390625 38.5799560546875 58.165252685546875 84.80490112304688Q30.9403076171875 131.02984619140625 30.9403076171875 189.8997802734375Q30.9403076171875 233.92962646484375 48.020263671875 274.9445495605469Q65.1002197265625 315.95947265625 95.82516479492188 348.95947265625Q126.55010986328125 381.95947265625 167.56503295898438 401.3144836425781Q208.5799560546875 420.66949462890625 255.7398681640625 420.66949462890625Q315.18975830078125 420.66949462890625 362.84967041015625 392.3795166015625Q410.50958251953125 364.08953857421875 438.7345275878906 317.8645935058594Q466.95947265625 271.6396484375 466.95947265625 216.76971435546875Q466.95947265625 156.7398681640625 440.8795166015625 103.86993408203125Q414.799560546875 51 363.4946594238281 18.5Q312.18975830078125 -14 235.159912109375 -14ZM255.5799560546875 20.92962646484375Q284.9403076171875 20.92962646484375 307.880615234375 32.334747314453125Q330.8209228515625 43.7398681640625 344.0810546875 68.39019775390625Q356.0810546875 90.520263671875 360.37103271484375 124.1002197265625Q364.6610107421875 157.68017578125 364.6610107421875 192.76971435546875Q364.6610107421875 243.08953857421875 349.0458679199219 286.8645935058594Q333.43072509765625 330.6396484375 305.41046142578125 357.8347473144531Q277.39019775390625 385.02984619140625 239.31982421875 385.02984619140625Q216.3795166015625 385.02984619140625 197.92428588867188 377.68975830078125Q179.46905517578125 370.34967041015625 164.36883544921875 351.6993408203125Q145.23876953125 328.72918701171875 139.09378051757812 292.2942199707031Q132.94879150390625 255.8592529296875 132.94879150390625 213.479736328125Q132.94879150390625 165.0596923828125 148.9189453125 120.84967041015625Q164.88909912109375 76.6396484375 192.55435180664062 48.784637451171875Q220.2196044921875 20.92962646484375 255.5799560546875 20.92962646484375Z" transform="translate(345.42,0) scale(0.1200,-0.1200)"/>
  </g>
  <g transform="translate(50.00,211.43)" fill="#4A4A4A">
    <path d="M149.76307598413183 0V1490H707.2782422947818Q878.3985352456515 1490 995.2180958193469 1425.7800732377173Q1112.0376563930424 1361.5601464754347 1171.9371071101618 1250.2405859017395Q1231.836557827281 1138.921025328044 1231.836557827281 996.5619774183705Q1231.836557827281 853.8429661275557 1171.3971620384498 742.7832773878547Q1110.9577662496185 631.7235886481539 993.198352151358 567.9035703387244Q875.4389380530973 504.0835520292951 702.8787915776625 504.0835520292951H333.5996338114129V723.9981690570644H667.6014647543485Q769.0431492218493 723.9981690570644 833.4839182178822 759.0987183399451Q897.9246872139151 794.1992676228258 928.4448886176381 855.8801647848643Q958.965090021361 917.5610619469027 958.965090021361 996.5619774183705Q958.965090021361 1076.282819652121 928.4448886176381 1137.1436985047299Q897.9246872139151 1198.004577357339 833.1638999084528 1232.2451632590783Q768.4031126029905 1266.4857491608177 666.321391516631 1266.4857491608177H416.7952395483674V0Z" transform="translate(0.00,0) scale(0.0063,-0.0063)"/><path d="M149.76307598413183 0V1490H1117.5169972535855V1265.1257857796766H416.7952395483674V863.3572169667378H1065.9972535855966V641.3627097955447H416.7952395483674V224.87421422032347H1121.8374732987488V0Z" transform="translate(12.02,0) scale(0.0063,-0.0063)"/><path d="M149.76307598413183 0V1490H707.2782422947818Q878.3985352456515 1490 995.2180958193469 1430.1400366188586Q1112.0376563930424 1370.2800732377175 1171.9371071101618 1262.8604211168754Q1231.836557827281 1155.440768996033 1231.836557827281 1013.4416844675007Q1231.836557827281 870.722673176686 1171.3971620384498 765.8429661275557Q1110.9577662496185 660.9632590784254 993.198352151358 604.0032041501373Q875.4389380530973 547.0431492218493 702.8787915776625 547.0431492218493H305.4380225816295V768.237839487336H667.6014647543485Q769.0431492218493 768.237839487336 833.1638999084528 796.7984436985048Q897.2846505950564 825.3590479096734 928.1248703082088 880.0399450717119Q958.965090021361 934.7208422337504 958.965090021361 1013.4416844675007Q958.965090021361 1093.4425999389687 928.1248703082088 1149.7635337198658Q897.2846505950564 1206.084467500763 832.8438815990235 1236.2851083307903Q768.4031126029905 1266.4857491608177 666.321391516631 1266.4857491608177H416.7952395483674V0ZM987.7649069270674 0 626.3250534025022 675.6795239548368H918.0771437290205L1286.9568507781507 0Z" transform="translate(23.53,0) scale(0.0063,-0.0063)"/><path d="M416.7952395483674 1490V0H149.76307598413183V1490ZM185.20109856576136 1633.1202929508697 324.4811718034788 1938.6391211473908H576.9559353066829L374.31681415929205 1633.1202929508697Z" transform="translate(35.65,0) scale(0.0063,-0.0063)"/><path d="M784.7998169057064 -20Q589.1202929508697 -20 434.94076899603294 70.8801647848642Q280.7612450411962 161.7603295697284 192.02157461092463 332.9003661885871Q103.28190418065304 504.04040280744584 103.28190418065304 744Q103.28190418065304 985.3195605736954 192.56151968263657 1156.6395788831248Q281.8411351846201 1327.9595971925542 436.2006408300275 1418.979798596277Q590.5601464754349 1510 784.7998169057064 1510Q907.15886481538 1510 1013.7782422947819 1475.380164784864Q1120.3976197741838 1440.7603295697284 1203.6372902044554 1374.2006408300274Q1286.8769606347269 1307.6409520903264 1340.9169057064387 1211.921483063778Q1394.9568507781507 1116.2020140372292 1412.797070491303 994.0027464144034H1143.6051266402196Q1131.2047604516326 1060.563808361306 1099.544064693317 1111.7245041196215Q1067.8833689350015 1162.885199877937 1020.8425083918218 1198.5656393042418Q973.801647848642 1234.2460787305463 914.900823924321 1252.44626182484Q856 1270.6464449191333 789.1193774794019 1270.6464449191333Q666.9981690570644 1270.6464449191333 572.4967958498627 1209.3057674702472Q477.99542264266097 1147.965090021361 424.71443393347573 1030.5036618858712Q371.4334452242905 913.0422337503815 371.4334452242905 744Q371.4334452242905 573.4380225816295 425.39441562404636 456.1565761367104Q479.3553860238023 338.87512969179124 573.4967958498627 279.11434238632893Q667.6382056759231 219.35355508086664 788.3994507171193 219.35355508086664Q855.2800732377174 219.35355508086664 914.0009154714678 237.87375648458953Q972.7217577052182 256.39395788831246 1020.1225816295391 291.7543790051877Q1067.5234055538601 327.1148001220629 1099.544064693317 378.5955141898078Q1131.5647238327738 430.07622825755266 1144.3250534025024 495.9972535855966H1413.5169972535855Q1398.836557827281 388.83655782728107 1348.2162648764113 295.5968873970095Q1297.5959719255416 202.35721696673787 1215.9761367104059 131.15794934391212Q1134.3563014952701 59.958681721086364 1025.5771437290205 19.979340860543182Q916.7979859627708 -20 784.7998169057064 -20Z" transform="translate(42.89,0) scale(0.0063,-0.0063)"/><path d="M416.7952395483674 1490V0H149.76307598413183V1490Z" transform="translate(56.11,0) scale(0.0063,-0.0063)"/><path d="M49.84021971315227 0 569.9623436069576 1490H909.4701861458651L1440.5519072322245 0H1147.6813548977723L883.1561184009765 773.8512053707659Q844.4371071101617 894.0073237717424 802.1574916081781 1045.3043942630454Q759.8778761061947 1196.6014647543484 708.8374732987488 1390.2010985657614H764.995422642661Q715.3149832163564 1195.3213915166311 674.5551113823619 1042.7442477876107Q633.7952395483674 890.1671040585902 597.7162648764114 773.8512053707659L341.83106499847423 0ZM352.79707049130303 369.2047604516326V584.1597802868478H1137.5950564540738V369.2047604516326Z" transform="translate(63.34,0) scale(0.0063,-0.0063)"/><path d="" transform="translate(76.44,0) scale(0.0063,-0.0063)"/><path d="M149.76307598413183 0V1490H1103.677693011901V1265.1257857796766H416.7952395483674V817.7594140982605H1037.1175465364663V595.7649069270674H416.7952395483674V0Z" transform="translate(83.36,0) scale(0.0063,-0.0063)"/><path d="M787.5996338114129 -20Q592.2800732377174 -20 437.3806225205981 70.8801647848642Q282.4811718034788 161.7603295697284 192.88153799206592 332.9003661885871Q103.28190418065304 504.04040280744584 103.28190418065304 744Q103.28190418065304 985.3195605736954 192.88153799206592 1156.6395788831248Q282.4811718034788 1327.9595971925542 437.3806225205981 1418.979798596277Q592.2800732377174 1510 787.5996338114129 1510Q982.9191943851083 1510 1137.3186451022275 1418.979798596277Q1291.718095819347 1327.9595971925542 1381.177693011901 1156.6395788831248Q1470.6372902044552 985.3195605736954 1470.6372902044552 744Q1470.6372902044552 503.68043942630453 1381.177693011901 332.54040280744584Q1291.718095819347 161.40036618858713 1137.3186451022275 70.70018309429356Q982.9191943851083 -20 787.5996338114129 -20ZM787.5996338114129 219.35355508086664Q909.0808056148917 219.35355508086664 1002.5422337503815 279.65428745804087Q1096.0036618858712 339.9550198352151 1149.2447055233445 457.23646628013427Q1202.4857491608177 574.5179127250534 1202.4857491608177 744Q1202.4857491608177 915.1221238938053 1149.2447055233445 1032.583552029295Q1096.0036618858712 1150.0449801647849 1002.5422337503815 1210.345712541959Q909.0808056148917 1270.6464449191333 787.5996338114129 1270.6464449191333Q665.8383887702166 1270.6464449191333 572.0569423252975 1210.0256942325298Q478.2754958803784 1149.4049435459262 424.8544705523344 1031.9435154104365Q371.4334452242905 914.4820872749466 371.4334452242905 744Q371.4334452242905 574.5179127250534 424.8544705523344 457.55648458956364Q478.2754958803784 340.59505645407387 572.0569423252975 279.97430576747024Q665.8383887702166 219.35355508086664 787.5996338114129 219.35355508086664Z" transform="translate(94.64,0) scale(0.0063,-0.0063)"/><path d="M149.76307598413183 0V1490H707.2782422947818Q878.3985352456515 1490 995.2180958193469 1430.1400366188586Q1112.0376563930424 1370.2800732377175 1171.9371071101618 1262.8604211168754Q1231.836557827281 1155.440768996033 1231.836557827281 1013.4416844675007Q1231.836557827281 870.722673176686 1171.3971620384498 765.8429661275557Q1110.9577662496185 660.9632590784254 993.198352151358 604.0032041501373Q875.4389380530973 547.0431492218493 702.8787915776625 547.0431492218493H305.4380225816295V768.237839487336H667.6014647543485Q769.0431492218493 768.237839487336 833.1638999084528 796.7984436985048Q897.2846505950564 825.3590479096734 928.1248703082088 880.0399450717119Q958.965090021361 934.7208422337504 958.965090021361 1013.4416844675007Q958.965090021361 1093.4425999389687 928.1248703082088 1149.7635337198658Q897.2846505950564 1206.084467500763 832.8438815990235 1236.2851083307903Q768.4031126029905 1266.4857491608177 666.321391516631 1266.4857491608177H416.7952395483674V0ZM987.7649069270674 0 626.3250534025022 675.6795239548368H918.0771437290205L1286.9568507781507 0Z" transform="translate(108.27,0) scale(0.0063,-0.0063)"/><path d="M149.76307598413183 0V1490H1117.5169972535855V1265.1257857796766H416.7952395483674V863.3572169667378H1065.9972535855966V641.3627097955447H416.7952395483674V224.87421422032347H1121.8374732987488V0Z" transform="translate(120.39,0) scale(0.0063,-0.0063)"/><path d="M149.76307598413183 0V1490H451.51516631065L967.1643576441868 669.4665242599939Q999.0835520292951 618.4279523954837 1035.2433323161429 553.9486115349405Q1071.4031126029906 489.4692706743973 1110.1831858407081 409.8099481232835Q1148.9632590784254 330.1506255721697 1187.3232224595668 233.11205370765947H1157.4435154104365Q1149.8833689350015 317.312236801953 1144.6234971010072 405.89121147390904Q1139.3636252670126 494.4701861458651 1136.5638083613062 573.9688129386634Q1133.7639914555996 653.4674397314617 1133.7639914555996 708.4665242599939V1490H1405.1157155935307V0H1102.083552029295L637.3158986878242 738.5711321330485Q593.4765944461398 809.8098870918523 554.1767775404332 878.7892279523954Q514.8769606347269 947.7685688129386 469.9366493744278 1034.8884040280745Q424.9963381141288 1122.0082392432103 361.1956057369545 1245.12853219408H398.71534940494354Q404.7952395483674 1136.2883124809277 410.05511138236193 1038.688678669515Q415.31498321635644 941.0890448581019 418.534909978639 864.2497406164175Q421.7548367409216 787.410436374733 421.7548367409216 739.8512053707659V0Z" transform="translate(131.90,0) scale(0.0063,-0.0063)"/><path d="M673.198352151358 -23.120292950869697Q500.31956057369547 -23.120292950869697 372.46051266402196 30.85950564540739Q244.60146475434848 84.83930424168447 172.92194079951173 187.8783338419286Q101.242416844675 290.9173634421727 95.12212389380531 438.23509307293256H358.1552029295087Q364.71534940494354 359.99450717119316 407.05602685382974 308.1942325297528Q449.3967043027159 256.39395788831246 518.3374732987488 230.79386634116568Q587.2782422947818 205.1937747940189 671.0385718645102 205.1937747940189Q759.0798901434239 205.1937747940189 826.4412267317668 232.07439731461702Q893.8025633201098 258.9550198352151 931.9834604821483 307.6161733292646Q970.1643576441868 356.277326823314 970.1643576441868 420.1588648153799Q970.1643576441868 478.480256332011 936.5036618858712 516.4609703997559Q902.8429661275557 554.4416844675007 842.3223069880988 580.5619774183705Q781.801647848642 606.6822703692402 700.7217577052182 626.8824534635337L531.5206591394568 671.0431492218493Q345.4012816600549 718.8034787915776 240.54177601464752 816.1432407689961Q135.68227036924014 913.4830027464144 135.68227036924014 1071.2020140372292Q135.68227036924014 1202.9614281354898 206.92194079951173 1301.7809887091853Q278.1616112297833 1400.6005492828806 401.1808971620385 1455.3002746414404Q524.2001830942936 1510 680.0789746719561 1510Q839.3177296307598 1510 958.9770521818737 1454.940311260299Q1078.6363747329874 1399.880622520598 1146.2961550198352 1303.1813548977725Q1213.955935306683 1206.4820872749467 1216.876045163259 1081.603295697284H958.163442172719Q948.0431492218493 1177.6446139761977 872.3415929203541 1230.3053097345132Q796.6400366188587 1282.9660054928288 676.2387549588038 1282.9660054928288Q592.4775099176076 1282.9660054928288 531.6763198046995 1257.5853829722307Q470.87512969179124 1232.2047604516326 438.4343606957583 1187.9637168141594Q405.99359169972536 1143.722673176686 405.99359169972536 1087.0413182789136Q405.99359169972536 1024.519743667989 444.4146170277693 984.5789746719561Q482.83564235581326 944.6382056759231 541.4164479707049 920.6579493439122Q599.9972535855966 896.6776930119012 659.7566676838571 881.6776930119012L799.0376563930424 846.0771437290205Q881.7153494049436 826.4775099176076 959.9747635032043 793.0780592004883Q1038.2341776014648 759.678608483369 1100.8145254806227 709.2190112908147Q1163.3948733597804 658.7594140982605 1200.1354592615198 587.0794324076899Q1236.876045163259 515.3994507171193 1236.876045163259 418.2387549588038Q1236.876045163259 287.2396704302716 1170.1363747329874 187.6198352151358Q1103.396704302716 88 977.357216966738 32.43985352456515Q851.3177296307598 -23.120292950869697 673.198352151358 -23.120292950869697Z" transform="translate(145.41,0) scale(0.0063,-0.0063)"/><path d="M149.76307598413183 0V1490H1117.5169972535855V1265.1257857796766H416.7952395483674V863.3572169667378H1065.9972535855966V641.3627097955447H416.7952395483674V224.87421422032347H1121.8374732987488V0Z" transform="translate(157.51,0) scale(0.0063,-0.0063)"/><path d="" transform="translate(169.01,0) scale(0.0063,-0.0063)"/><path d="M653.9990845285322 0H276.7208422337504V231.35355508086664H640.559231003967Q797.0018309429356 231.35355508086664 901.7433323161429 288.4348184314922Q1006.48483368935 345.5160817821178 1059.0054928288068 460.21763808361305Q1111.5261519682635 574.9191943851083 1111.5261519682635 746.5601464754349Q1111.5261519682635 917.2809887091852 1058.9655477570948 1031.0224900823923Q1006.4049435459261 1144.7639914555996 903.5036618858712 1201.7052181873664Q800.6023802258163 1258.6464449191333 647.7603295697284 1258.6464449191333H269.44076899603294V1490H664Q886.3195605736954 1490 1045.3191028379615 1400.8200183094293Q1204.3186451022277 1311.6400366188586 1289.8783338419287 1144.960054928288Q1375.4380225816296 978.2800732377174 1375.4380225816296 746.5601464754349Q1375.4380225816296 513.9201098565761 1289.7382972230698 346.6000915471468Q1204.0385718645102 179.28007323771743 1042.518828196521 89.64003661885872Q880.9990845285322 0 653.9990845285322 0ZM416.7952395483674 1490V0H149.76307598413183V1490Z" transform="translate(175.93,0) scale(0.0063,-0.0063)"/><path d="M149.76307598413183 0V1490H1117.5169972535855V1265.1257857796766H416.7952395483674V863.3572169667378H1065.9972535855966V641.3627097955447H416.7952395483674V224.87421422032347H1121.8374732987488V0Z" transform="translate(188.95,0) scale(0.0063,-0.0063)"/><path d="" transform="translate(200.46,0) scale(0.0063,-0.0063)"/><path d="M784.7998169057064 -20Q589.1202929508697 -20 434.94076899603294 70.8801647848642Q280.7612450411962 161.7603295697284 192.02157461092463 332.9003661885871Q103.28190418065304 504.04040280744584 103.28190418065304 744Q103.28190418065304 985.3195605736954 192.56151968263657 1156.6395788831248Q281.8411351846201 1327.9595971925542 436.2006408300275 1418.979798596277Q590.5601464754349 1510 784.7998169057064 1510Q907.15886481538 1510 1013.7782422947819 1475.380164784864Q1120.3976197741838 1440.7603295697284 1203.6372902044554 1374.2006408300274Q1286.8769606347269 1307.6409520903264 1340.9169057064387 1211.921483063778Q1394.9568507781507 1116.2020140372292 1412.797070491303 994.0027464144034H1143.6051266402196Q1131.2047604516326 1060.563808361306 1099.544064693317 1111.7245041196215Q1067.8833689350015 1162.885199877937 1020.8425083918218 1198.5656393042418Q973.801647848642 1234.2460787305463 914.900823924321 1252.44626182484Q856 1270.6464449191333 789.1193774794019 1270.6464449191333Q666.9981690570644 1270.6464449191333 572.4967958498627 1209.3057674702472Q477.99542264266097 1147.965090021361 424.71443393347573 1030.5036618858712Q371.4334452242905 913.0422337503815 371.4334452242905 744Q371.4334452242905 573.4380225816295 425.39441562404636 456.1565761367104Q479.3553860238023 338.87512969179124 573.4967958498627 279.11434238632893Q667.6382056759231 219.35355508086664 788.3994507171193 219.35355508086664Q855.2800732377174 219.35355508086664 914.0009154714678 237.87375648458953Q972.7217577052182 256.39395788831246 1020.1225816295391 291.7543790051877Q1067.5234055538601 327.1148001220629 1099.544064693317 378.5955141898078Q1131.5647238327738 430.07622825755266 1144.3250534025024 495.9972535855966H1413.5169972535855Q1398.836557827281 388.83655782728107 1348.2162648764113 295.5968873970095Q1297.5959719255416 202.35721696673787 1215.9761367104059 131.15794934391212Q1134.3563014952701 59.958681721086364 1025.5771437290205 19.979340860543182Q916.7979859627708 -20 784.7998169057064 -20Z" transform="translate(207.37,0) scale(0.0063,-0.0063)"/><path d="M787.5996338114129 -20Q592.2800732377174 -20 437.3806225205981 70.8801647848642Q282.4811718034788 161.7603295697284 192.88153799206592 332.9003661885871Q103.28190418065304 504.04040280744584 103.28190418065304 744Q103.28190418065304 985.3195605736954 192.88153799206592 1156.6395788831248Q282.4811718034788 1327.9595971925542 437.3806225205981 1418.979798596277Q592.2800732377174 1510 787.5996338114129 1510Q982.9191943851083 1510 1137.3186451022275 1418.979798596277Q1291.718095819347 1327.9595971925542 1381.177693011901 1156.6395788831248Q1470.6372902044552 985.3195605736954 1470.6372902044552 744Q1470.6372902044552 503.68043942630453 1381.177693011901 332.54040280744584Q1291.718095819347 161.40036618858713 1137.3186451022275 70.70018309429356Q982.9191943851083 -20 787.5996338114129 -20ZM787.5996338114129 219.35355508086664Q909.0808056148917 219.35355508086664 1002.5422337503815 279.65428745804087Q1096.0036618858712 339.9550198352151 1149.2447055233445 457.23646628013427Q1202.4857491608177 574.5179127250534 1202.4857491608177 744Q1202.4857491608177 915.1221238938053 1149.2447055233445 1032.583552029295Q1096.0036618858712 1150.0449801647849 1002.5422337503815 1210.345712541959Q909.0808056148917 1270.6464449191333 787.5996338114129 1270.6464449191333Q665.8383887702166 1270.6464449191333 572.0569423252975 1210.0256942325298Q478.2754958803784 1149.4049435459262 424.8544705523344 1031.9435154104365Q371.4334452242905 914.4820872749466 371.4334452242905 744Q371.4334452242905 574.5179127250534 424.8544705523344 457.55648458956364Q478.2754958803784 340.59505645407387 572.0569423252975 279.97430576747024Q665.8383887702166 219.35355508086664 787.5996338114129 219.35355508086664Z" transform="translate(220.59,0) scale(0.0063,-0.0063)"/><path d="M149.76307598413183 0V1490H552.2296002441258L835.3581324382056 720.6226426609704Q849.7979859627708 677.9036313701556 868.2777845590479 610.5854440036619Q886.7575831553249 543.2672566371682 906.3374732987488 465.28928898382674Q925.9173634421727 387.3113213304852 943.2773268233141 312.89304241684465Q960.6372902044553 238.47476350320414 972.5574000610314 181.19560573695452H918.678608483369Q931.2387549588038 236.55465364662803 948.4187366493745 310.33289594140984Q965.5987183399451 384.11113823619166 985.1786084833689 462.4091241989625Q1004.7584986267927 540.7071101617333 1023.3783338419286 608.9853524565151Q1041.9981690570644 677.263594751297 1056.4380225816296 720.6226426609704L1335.6464449191333 1490H1739.1129691791273V0H1472.5610619469026V752.0100701861459Q1472.5610619469026 799.8098870918523 1473.7809887091853 867.9889533109551Q1475.0009154714678 936.168019530058 1477.0408605431799 1014.1267012511444Q1479.0808056148917 1092.0853829722307 1480.940768996033 1171.6841013121757Q1482.8007323771742 1251.282819652121 1483.440768996033 1322.5619774183704H1501.960512664022Q1482.0404028074458 1244.202929508697 1458.7203844980165 1161.544064693317Q1435.4003661885872 1078.885199877937 1412.3604211168754 1001.2263350625572Q1389.3204760451633 923.5674702471773 1368.6005492828808 859.0284406469332Q1347.880622520598 794.489411046689 1333.1606957583156 752.0100701861459L1057.7548367409215 0H831.2010985657614L551.51516631065 752.0100701861459Q536.7952395483674 793.8493744278303 516.5353677143729 857.4283490997864Q496.2754958803784 921.0073237717424 472.87558742752515 998.0261519682637Q449.47567897467195 1075.0449801647849 425.65566066524264 1158.3438815990235Q401.83564235581326 1241.642783033262 378.99542264266097 1322.5619774183704H400.9550198352151Q402.23509307293256 1255.7630759841318 404.09505645407387 1177.4444308819043Q405.9550198352151 1099.1257857796766 407.6749465974977 1020.207049130302Q409.39487335978026 941.2883124809276 410.9348184314922 871.5091547146781Q412.47476350320414 801.7299969484284 412.47476350320414 752.0100701861459V0Z" transform="translate(234.22,0) scale(0.0063,-0.0063)"/><path d="M754.0009154714678 -21.840219713152273Q572.2415013732073 -21.840219713152273 436.0619774183705 46.619835215135794Q299.8824534635337 115.07989014342387 224.82276472383276 236.69972535855968Q149.76307598413183 358.31956057369547 149.76307598413183 517.4389380530973V1490H416.7952395483674V539.2782422947818Q416.7952395483674 445.5968873970095 458.3558437595361 372.89578883124807Q499.9164479707049 300.1946902654867 575.4977113213305 258.49404943545926Q651.0789746719561 216.7934086054318 754.0009154714678 216.7934086054318Q857.2828196521208 216.7934086054318 932.7240463838878 258.49404943545926Q1008.1652731156546 300.1946902654867 1049.405859017394 372.89578883124807Q1090.6464449191333 445.5968873970095 1090.6464449191333 539.2782422947818V1490H1357.6786084833689V517.4389380530973Q1357.6786084833689 358.31956057369547 1282.4389380530974 236.69972535855968Q1207.1992676228258 115.07989014342387 1071.479798596277 46.619835215135794Q935.7603295697284 -21.840219713152273 754.0009154714678 -21.840219713152273Z" transform="translate(249.85,0) scale(0.0063,-0.0063)"/><path d="M149.76307598413183 0V1490H451.51516631065L967.1643576441868 669.4665242599939Q999.0835520292951 618.4279523954837 1035.2433323161429 553.9486115349405Q1071.4031126029906 489.4692706743973 1110.1831858407081 409.8099481232835Q1148.9632590784254 330.1506255721697 1187.3232224595668 233.11205370765947H1157.4435154104365Q1149.8833689350015 317.312236801953 1144.6234971010072 405.89121147390904Q1139.3636252670126 494.4701861458651 1136.5638083613062 573.9688129386634Q1133.7639914555996 653.4674397314617 1133.7639914555996 708.4665242599939V1490H1405.1157155935307V0H1102.083552029295L637.3158986878242 738.5711321330485Q593.4765944461398 809.8098870918523 554.1767775404332 878.7892279523954Q514.8769606347269 947.7685688129386 469.9366493744278 1034.8884040280745Q424.9963381141288 1122.0082392432103 361.1956057369545 1245.12853219408H398.71534940494354Q404.7952395483674 1136.2883124809277 410.05511138236193 1038.688678669515Q415.31498321635644 941.0890448581019 418.534909978639 864.2497406164175Q421.7548367409216 787.410436374733 421.7548367409216 739.8512053707659V0Z" transform="translate(263.06,0) scale(0.0063,-0.0063)"/><path d="M416.7952395483674 1490V0H149.76307598413183V1490Z" transform="translate(276.57,0) scale(0.0063,-0.0063)"/><path d="M784.7998169057064 -20Q589.1202929508697 -20 434.94076899603294 70.8801647848642Q280.7612450411962 161.7603295697284 192.02157461092463 332.9003661885871Q103.28190418065304 504.04040280744584 103.28190418065304 744Q103.28190418065304 985.3195605736954 192.56151968263657 1156.6395788831248Q281.8411351846201 1327.9595971925542 436.2006408300275 1418.979798596277Q590.5601464754349 1510 784.7998169057064 1510Q907.15886481538 1510 1013.7782422947819 1475.380164784864Q1120.3976197741838 1440.7603295697284 1203.6372902044554 1374.2006408300274Q1286.8769606347269 1307.6409520903264 1340.9169057064387 1211.921483063778Q1394.9568507781507 1116.2020140372292 1412.797070491303 994.0027464144034H1143.6051266402196Q1131.2047604516326 1060.563808361306 1099.544064693317 1111.7245041196215Q1067.8833689350015 1162.885199877937 1020.8425083918218 1198.5656393042418Q973.801647848642 1234.2460787305463 914.900823924321 1252.44626182484Q856 1270.6464449191333 789.1193774794019 1270.6464449191333Q666.9981690570644 1270.6464449191333 572.4967958498627 1209.3057674702472Q477.99542264266097 1147.965090021361 424.71443393347573 1030.5036618858712Q371.4334452242905 913.0422337503815 371.4334452242905 744Q371.4334452242905 573.4380225816295 425.39441562404636 456.1565761367104Q479.3553860238023 338.87512969179124 573.4967958498627 279.11434238632893Q667.6382056759231 219.35355508086664 788.3994507171193 219.35355508086664Q855.2800732377174 219.35355508086664 914.0009154714678 237.87375648458953Q972.7217577052182 256.39395788831246 1020.1225816295391 291.7543790051877Q1067.5234055538601 327.1148001220629 1099.544064693317 378.5955141898078Q1131.5647238327738 430.07622825755266 1144.3250534025024 495.9972535855966H1413.5169972535855Q1398.836557827281 388.83655782728107 1348.2162648764113 295.5968873970095Q1297.5959719255416 202.35721696673787 1215.9761367104059 131.15794934391212Q1134.3563014952701 59.958681721086364 1025.5771437290205 19.979340860543182Q916.7979859627708 -20 784.7998169057064 -20Z" transform="translate(283.81,0) scale(0.0063,-0.0063)"/><path d="M49.84021971315227 0 569.9623436069576 1490H909.4701861458651L1440.5519072322245 0H1147.6813548977723L883.1561184009765 773.8512053707659Q844.4371071101617 894.0073237717424 802.1574916081781 1045.3043942630454Q759.8778761061947 1196.6014647543484 708.8374732987488 1390.2010985657614H764.995422642661Q715.3149832163564 1195.3213915166311 674.5551113823619 1042.7442477876107Q633.7952395483674 890.1671040585902 597.7162648764114 773.8512053707659L341.83106499847423 0ZM352.79707049130303 369.2047604516326V584.1597802868478H1137.5950564540738V369.2047604516326Z" transform="translate(297.02,0) scale(0.0063,-0.0063)"/><path d="M784.7998169057064 -20Q589.1202929508697 -20 434.94076899603294 70.8801647848642Q280.7612450411962 161.7603295697284 192.02157461092463 332.9003661885871Q103.28190418065304 504.04040280744584 103.28190418065304 744Q103.28190418065304 985.3195605736954 192.56151968263657 1156.6395788831248Q281.8411351846201 1327.9595971925542 436.2006408300275 1418.979798596277Q590.5601464754349 1510 784.7998169057064 1510Q907.15886481538 1510 1013.7782422947819 1475.380164784864Q1120.3976197741838 1440.7603295697284 1203.6372902044554 1374.2006408300274Q1286.8769606347269 1307.6409520903264 1340.9169057064387 1211.921483063778Q1394.9568507781507 1116.2020140372292 1412.797070491303 994.0027464144034H1143.6051266402196Q1131.2047604516326 1060.563808361306 1099.544064693317 1111.7245041196215Q1067.8833689350015 1162.885199877937 1020.8425083918218 1198.5656393042418Q973.801647848642 1234.2460787305463 914.900823924321 1252.44626182484Q856 1270.6464449191333 789.1193774794019 1270.6464449191333Q666.9981690570644 1270.6464449191333 572.4967958498627 1209.3057674702472Q477.99542264266097 1147.965090021361 424.71443393347573 1030.5036618858712Q371.4334452242905 913.0422337503815 371.4334452242905 744Q371.4334452242905 573.4380225816295 425.39441562404636 456.1565761367104Q479.3553860238023 338.87512969179124 573.4967958498627 279.11434238632893Q667.6382056759231 219.35355508086664 788.3994507171193 219.35355508086664Q855.2800732377174 219.35355508086664 914.0009154714678 237.87375648458953Q972.7217577052182 256.39395788831246 1020.1225816295391 291.7543790051877Q1067.5234055538601 327.1148001220629 1099.544064693317 378.5955141898078Q1131.5647238327738 430.07622825755266 1144.3250534025024 495.9972535855966H1413.5169972535855Q1398.836557827281 388.83655782728107 1348.2162648764113 295.5968873970095Q1297.5959719255416 202.35721696673787 1215.9761367104059 131.15794934391212Q1134.3563014952701 59.958681721086364 1025.5771437290205 19.979340860543182Q916.7979859627708 -20 784.7998169057064 -20ZM658.7612450411962 -422.8806225205981V-308.5215746109246H782.8806225205981Q833.2010985657614 -308.5215746109246 853.8011901129082 -294.2015563014952Q874.401281660055 -279.8815379920659 874.401281660055 -245.40128166005493Q874.401281660055 -210.92102532804395 853.8011901129082 -197.1010070186146Q833.2010985657614 -183.28098870918524 782.8806225205981 -183.28098870918524H694.4012816600549L728.7208422337503 40.23967043027159H837.3994507171194V-4.8806225205981075L833.4398535245653 -92.32047604516326Q929.2800732377175 -90.56106194690265 978.7396704302716 -130.68089716203846Q1028.1992676228258 -170.80073237717426 1028.1992676228258 -250.72084223375037Q1028.1992676228258 -341.60054928288065 971.7993591699726 -382.24058590173934Q915.3994507171194 -422.8806225205981 791.7998169057064 -422.8806225205981Z" transform="translate(310.12,0) scale(0.0063,-0.0063)"/><path d="M787.5996338114129 -20Q592.2800732377174 -20 437.3806225205981 70.8801647848642Q282.4811718034788 161.7603295697284 192.88153799206592 332.9003661885871Q103.28190418065304 504.04040280744584 103.28190418065304 744Q103.28190418065304 985.3195605736954 192.88153799206592 1156.6395788831248Q282.4811718034788 1327.9595971925542 437.3806225205981 1418.979798596277Q592.2800732377174 1510 787.5996338114129 1510Q982.9191943851083 1510 1137.3186451022275 1418.979798596277Q1291.718095819347 1327.9595971925542 1381.177693011901 1156.6395788831248Q1470.6372902044552 985.3195605736954 1470.6372902044552 744Q1470.6372902044552 503.68043942630453 1381.177693011901 332.54040280744584Q1291.718095819347 161.40036618858713 1137.3186451022275 70.70018309429356Q982.9191943851083 -20 787.5996338114129 -20ZM787.5996338114129 219.35355508086664Q909.0808056148917 219.35355508086664 1002.5422337503815 279.65428745804087Q1096.0036618858712 339.9550198352151 1149.2447055233445 457.23646628013427Q1202.4857491608177 574.5179127250534 1202.4857491608177 744Q1202.4857491608177 915.1221238938053 1149.2447055233445 1032.583552029295Q1096.0036618858712 1150.0449801647849 1002.5422337503815 1210.345712541959Q909.0808056148917 1270.6464449191333 787.5996338114129 1270.6464449191333Q665.8383887702166 1270.6464449191333 572.0569423252975 1210.0256942325298Q478.2754958803784 1149.4049435459262 424.8544705523344 1031.9435154104365Q371.4334452242905 914.4820872749466 371.4334452242905 744Q371.4334452242905 574.5179127250534 424.8544705523344 457.55648458956364Q478.2754958803784 340.59505645407387 572.0569423252975 279.97430576747024Q665.8383887702166 219.35355508086664 787.5996338114129 219.35355508086664ZM924.7190112908147 1664.4820872749467Q880.519743667989 1664.4820872749467 843.5798901434239 1678.9618858712238Q806.6400366188587 1693.4416844675009 776.2199267622825 1712.6414098260605Q745.7998169057064 1731.84113518462 720.019743667989 1746.3209337808971Q694.2396704302716 1760.8007323771742 672.0 1760.8007323771742Q642.7603295697284 1760.8007323771742 627.7405859017393 1734.5408605431799Q612.7208422337503 1708.2809887091853 610.7208422337503 1669.9219407995117H458.8034787915776Q461.8034787915776 1784.3994507171194 512.6423252975283 1849.8787915776625Q563.4811718034788 1915.3581324382058 651.7603295697284 1915.3581324382058Q696.8797070491303 1915.3581324382058 732.3994507171193 1900.7382972230698Q767.9191943851083 1886.118462007934 797.099176075679 1867.0987183399452Q826.2791577662496 1848.078974671956 852.0592310039669 1833.4591394568201Q877.8393042416844 1818.8393042416844 903.1992676228257 1818.8393042416844Q934.3186451022276 1818.8393042416844 948.9384803173634 1841.618919743668Q963.5583155324993 1864.3985352456516 967.1184620079341 1910.638205675923H1116.395788831248Q1113.7557522123893 1795.0404028074458 1061.27686908758 1729.7612450411962Q1008.7979859627708 1664.4820872749467 924.7190112908147 1664.4820872749467Z" transform="translate(323.34,0) scale(0.0063,-0.0063)"/><path d="M149.76307598413183 0V1490H1117.5169972535855V1265.1257857796766H416.7952395483674V863.3572169667378H1065.9972535855966V641.3627097955447H416.7952395483674V224.87421422032347H1121.8374732987488V0Z" transform="translate(336.97,0) scale(0.0063,-0.0063)"/><path d="M673.198352151358 -23.120292950869697Q500.31956057369547 -23.120292950869697 372.46051266402196 30.85950564540739Q244.60146475434848 84.83930424168447 172.92194079951173 187.8783338419286Q101.242416844675 290.9173634421727 95.12212389380531 438.23509307293256H358.1552029295087Q364.71534940494354 359.99450717119316 407.05602685382974 308.1942325297528Q449.3967043027159 256.39395788831246 518.3374732987488 230.79386634116568Q587.2782422947818 205.1937747940189 671.0385718645102 205.1937747940189Q759.0798901434239 205.1937747940189 826.4412267317668 232.07439731461702Q893.8025633201098 258.9550198352151 931.9834604821483 307.6161733292646Q970.1643576441868 356.277326823314 970.1643576441868 420.1588648153799Q970.1643576441868 478.480256332011 936.5036618858712 516.4609703997559Q902.8429661275557 554.4416844675007 842.3223069880988 580.5619774183705Q781.801647848642 606.6822703692402 700.7217577052182 626.8824534635337L531.5206591394568 671.0431492218493Q345.4012816600549 718.8034787915776 240.54177601464752 816.1432407689961Q135.68227036924014 913.4830027464144 135.68227036924014 1071.2020140372292Q135.68227036924014 1202.9614281354898 206.92194079951173 1301.7809887091853Q278.1616112297833 1400.6005492828806 401.1808971620385 1455.3002746414404Q524.2001830942936 1510 680.0789746719561 1510Q839.3177296307598 1510 958.9770521818737 1454.940311260299Q1078.6363747329874 1399.880622520598 1146.2961550198352 1303.1813548977725Q1213.955935306683 1206.4820872749467 1216.876045163259 1081.603295697284H958.163442172719Q948.0431492218493 1177.6446139761977 872.3415929203541 1230.3053097345132Q796.6400366188587 1282.9660054928288 676.2387549588038 1282.9660054928288Q592.4775099176076 1282.9660054928288 531.6763198046995 1257.5853829722307Q470.87512969179124 1232.2047604516326 438.4343606957583 1187.9637168141594Q405.99359169972536 1143.722673176686 405.99359169972536 1087.0413182789136Q405.99359169972536 1024.519743667989 444.4146170277693 984.5789746719561Q482.83564235581326 944.6382056759231 541.4164479707049 920.6579493439122Q599.9972535855966 896.6776930119012 659.7566676838571 881.6776930119012L799.0376563930424 846.0771437290205Q881.7153494049436 826.4775099176076 959.9747635032043 793.0780592004883Q1038.2341776014648 759.678608483369 1100.8145254806227 709.2190112908147Q1163.3948733597804 658.7594140982605 1200.1354592615198 587.0794324076899Q1236.876045163259 515.3994507171193 1236.876045163259 418.2387549588038Q1236.876045163259 287.2396704302716 1170.1363747329874 187.6198352151358Q1103.396704302716 88 977.357216966738 32.43985352456515Q851.3177296307598 -23.120292950869697 673.198352151358 -23.120292950869697Z" transform="translate(348.48,0) scale(0.0063,-0.0063)"/><path d="" transform="translate(360.57,0) scale(0.0063,-0.0063)"/><path d="M653.9990845285322 0H276.7208422337504V231.35355508086664H640.559231003967Q797.0018309429356 231.35355508086664 901.7433323161429 288.4348184314922Q1006.48483368935 345.5160817821178 1059.0054928288068 460.21763808361305Q1111.5261519682635 574.9191943851083 1111.5261519682635 746.5601464754349Q1111.5261519682635 917.2809887091852 1058.9655477570948 1031.0224900823923Q1006.4049435459261 1144.7639914555996 903.5036618858712 1201.7052181873664Q800.6023802258163 1258.6464449191333 647.7603295697284 1258.6464449191333H269.44076899603294V1490H664Q886.3195605736954 1490 1045.3191028379615 1400.8200183094293Q1204.3186451022277 1311.6400366188586 1289.8783338419287 1144.960054928288Q1375.4380225816296 978.2800732377174 1375.4380225816296 746.5601464754349Q1375.4380225816296 513.9201098565761 1289.7382972230698 346.6000915471468Q1204.0385718645102 179.28007323771743 1042.518828196521 89.64003661885872Q880.9990845285322 0 653.9990845285322 0ZM416.7952395483674 1490V0H149.76307598413183V1490Z" transform="translate(367.49,0) scale(0.0063,-0.0063)"/><path d="M416.7952395483674 1490V0H149.76307598413183V1490Z" transform="translate(380.51,0) scale(0.0063,-0.0063)"/><path d="M792.9595971925542 -20Q587.480256332011 -20 432.2607873054623 72.82001830942936Q277.04131827891365 165.64003661885872 190.16161122978335 336.96005492828806Q103.28190418065304 508.28007323771743 103.28190418065304 743.2800732377174Q103.28190418065304 983.519743667989 192.5013732072017 1155.019743667989Q281.7208422337504 1326.519743667989 435.84021971315224 1418.2598718339946Q589.9595971925542 1510 784.559231003967 1510Q907.5987183399451 1510 1014.0583155324991 1474.1000915471468Q1120.5179127250533 1438.2001830942936 1204.0376563930422 1371.7603295697286Q1287.5574000610313 1305.3204760451633 1341.0574000610313 1214.380622520598Q1394.5574000610313 1123.440768996033 1411.677693011901 1014.0009154714678H1139.3654562099482Q1121.4049435459262 1073.762160512664 1089.7043027158988 1121.0431492218493Q1058.0036618858712 1168.3241379310346 1013.4228562709795 1201.944888617638Q968.8420506560878 1235.5656393042416 912.381080256332 1253.1060421116874Q855.9201098565761 1270.6464449191333 788.0789746719561 1270.6464449191333Q667.8778761061947 1270.6464449191333 573.4765944461398 1209.9857491608177Q479.07531278608485 1149.3250534025024 425.2543790051877 1032.043606957583Q371.4334452242905 914.762160512664 371.4334452242905 745.4398535245651Q371.4334452242905 576.6776930119012 425.0344522429051 459.3563014952701Q478.6354592615197 342.034909978639 573.77686908758 280.6942325297528Q668.9182789136405 219.35355508086664 794.3994507171193 219.35355508086664Q908.1606957583156 219.35355508086664 991.7419591089412 263.31452548062254Q1075.3232224595668 307.2754958803784 1120.544064693317 388.1372902044553Q1165.7649069270674 468.9990845285322 1165.7649069270674 578.8815379920659L1227.4444308819043 568.9614281354898H821.5206591394568V778.8769606347269H1425.1974366798902V600.3985352456515Q1425.1974366798902 408.55923100396706 1343.6776930119013 269.4995422642661Q1262.1579493439122 130.43985352456514 1119.618462007934 55.21992676228257Q977.0789746719561 -20 792.9595971925542 -20Z" transform="translate(387.75,0) scale(0.0063,-0.0063)"/><path d="M416.7952395483674 1490V0H149.76307598413183V1490Z" transform="translate(401.13,0) scale(0.0063,-0.0063)"/><path d="M82.88153799206592 1265.1257857796766V1490H1269.3553860238023V1265.1257857796766H810.2745804089107V0H543.2424168446751V1265.1257857796766Z" transform="translate(408.36,0) scale(0.0063,-0.0063)"/><path d="M49.84021971315227 0 569.9623436069576 1490H909.4701861458651L1440.5519072322245 0H1147.6813548977723L883.1561184009765 773.8512053707659Q844.4371071101617 894.0073237717424 802.1574916081781 1045.3043942630454Q759.8778761061947 1196.6014647543484 708.8374732987488 1390.2010985657614H764.995422642661Q715.3149832163564 1195.3213915166311 674.5551113823619 1042.7442477876107Q633.7952395483674 890.1671040585902 597.7162648764114 773.8512053707659L341.83106499847423 0ZM352.79707049130303 369.2047604516326V584.1597802868478H1137.5950564540738V369.2047604516326Z" transform="translate(420.59,0) scale(0.0063,-0.0063)"/><path d="M416.7952395483674 1490V0H149.76307598413183V1490Z" transform="translate(433.69,0) scale(0.0063,-0.0063)"/><path d="M673.198352151358 -23.120292950869697Q500.31956057369547 -23.120292950869697 372.46051266402196 30.85950564540739Q244.60146475434848 84.83930424168447 172.92194079951173 187.8783338419286Q101.242416844675 290.9173634421727 95.12212389380531 438.23509307293256H358.1552029295087Q364.71534940494354 359.99450717119316 407.05602685382974 308.1942325297528Q449.3967043027159 256.39395788831246 518.3374732987488 230.79386634116568Q587.2782422947818 205.1937747940189 671.0385718645102 205.1937747940189Q759.0798901434239 205.1937747940189 826.4412267317668 232.07439731461702Q893.8025633201098 258.9550198352151 931.9834604821483 307.6161733292646Q970.1643576441868 356.277326823314 970.1643576441868 420.1588648153799Q970.1643576441868 478.480256332011 936.5036618858712 516.4609703997559Q902.8429661275557 554.4416844675007 842.3223069880988 580.5619774183705Q781.801647848642 606.6822703692402 700.7217577052182 626.8824534635337L531.5206591394568 671.0431492218493Q345.4012816600549 718.8034787915776 240.54177601464752 816.1432407689961Q135.68227036924014 913.4830027464144 135.68227036924014 1071.2020140372292Q135.68227036924014 1202.9614281354898 206.92194079951173 1301.7809887091853Q278.1616112297833 1400.6005492828806 401.1808971620385 1455.3002746414404Q524.2001830942936 1510 680.0789746719561 1510Q839.3177296307598 1510 958.9770521818737 1454.940311260299Q1078.6363747329874 1399.880622520598 1146.2961550198352 1303.1813548977725Q1213.955935306683 1206.4820872749467 1216.876045163259 1081.603295697284H958.163442172719Q948.0431492218493 1177.6446139761977 872.3415929203541 1230.3053097345132Q796.6400366188587 1282.9660054928288 676.2387549588038 1282.9660054928288Q592.4775099176076 1282.9660054928288 531.6763198046995 1257.5853829722307Q470.87512969179124 1232.2047604516326 438.4343606957583 1187.9637168141594Q405.99359169972536 1143.722673176686 405.99359169972536 1087.0413182789136Q405.99359169972536 1024.519743667989 444.4146170277693 984.5789746719561Q482.83564235581326 944.6382056759231 541.4164479707049 920.6579493439122Q599.9972535855966 896.6776930119012 659.7566676838571 881.6776930119012L799.0376563930424 846.0771437290205Q881.7153494049436 826.4775099176076 959.9747635032043 793.0780592004883Q1038.2341776014648 759.678608483369 1100.8145254806227 709.2190112908147Q1163.3948733597804 658.7594140982605 1200.1354592615198 587.0794324076899Q1236.876045163259 515.3994507171193 1236.876045163259 418.2387549588038Q1236.876045163259 287.2396704302716 1170.1363747329874 187.6198352151358Q1103.396704302716 88 977.357216966738 32.43985352456515Q851.3177296307598 -23.120292950869697 673.198352151358 -23.120292950869697Z" transform="translate(440.92,0) scale(0.0063,-0.0063)"/>
  </g>
</svg>